<?xml version="1.0" encoding="utf-8"?>
<!-- Generator: Adobe Illustrator 21.1.0, SVG Export Plug-In . SVG Version: 6.00 Build 0)  -->
<svg version="1.1" id="Layer_1" xmlns="http://www.w3.org/2000/svg" xmlns:xlink="http://www.w3.org/1999/xlink" x="0px" y="0px"
	 width="57.8px" height="65px" viewBox="0 0 57.8 65" style="enable-background:new 0 0 57.8 65;" xml:space="preserve">
<style type="text/css">
	.st0{fill:#A179DC;}
	.st1{fill:#280068;}
	.st2{fill:#390091;}
	.st3{fill:#FFFFFF;}
</style>
<path class="st0" d="M57.8,19.1c0-1.1-0.2-2.1-0.7-2.9c-0.5-0.8-1.2-1.5-2.1-2C47.3,9.7,39.6,5.3,31.9,0.9c-2.1-1.2-4.1-1.2-6.1,0.1
	c-3.1,1.8-18.4,10.6-23,13.2C0.9,15.3,0,16.9,0,19.1C0,28,0,37,0,45.9c0,1.1,0.2,2,0.7,2.8c0.5,0.8,1.2,1.5,2.1,2.1
	c4.6,2.6,19.9,11.4,23,13.2c2.1,1.2,4.1,1.3,6.1,0.1c7.7-4.4,15.4-8.9,23.1-13.3c1-0.6,1.7-1.3,2.1-2.1c0.5-0.8,0.7-1.8,0.7-2.8
	C57.8,45.9,57.8,28,57.8,19.1"/>
<path class="st1" d="M29,32.4L0.7,48.7c0.5,0.8,1.2,1.5,2.1,2.1c4.6,2.6,19.9,11.4,23,13.2c2.1,1.2,4.1,1.3,6.1,0.1
	c7.7-4.4,15.4-8.9,23.1-13.3c1-0.6,1.7-1.3,2.1-2.1L29,32.4z"/>
<path class="st2" d="M57.8,19.1c0-1.1-0.2-2.1-0.7-2.9L29,32.4l28.2,16.3c0.5-0.8,0.7-1.8,0.7-2.8C57.8,45.9,57.8,28,57.8,19.1"/>
<path class="st3" d="M45.7,26.3v3h3v-3h1.5v3h3v1.5h-3v3h3v1.5h-3v3h-1.5v-3h-3v3h-1.5v-3h-3v-1.5h3v-3h-3v-1.5h3v-3L45.7,26.3
	L45.7,26.3z M48.7,30.9h-3v3h3V30.9z"/>
<path class="st3" d="M29.1,11c8,0,14.9,4.3,18.6,10.7l0-0.1l-9.4,5.4c-1.8-3.1-5.2-5.2-9.1-5.3h-0.1c-5.9,0-10.7,4.8-10.7,10.7
	c0,1.9,0.5,3.7,1.4,5.3c1.8,3.2,5.3,5.4,9.3,5.4c4,0,7.5-2.2,9.3-5.5l0,0.1l9.3,5.4C44,49.6,37.2,53.9,29.3,54l-0.2,0
	c-8,0-14.9-4.3-18.6-10.8C8.6,40,7.6,36.4,7.6,32.5C7.6,20.6,17.2,11,29.1,11L29.1,11z"/>
</svg>
