<?xml version="1.0" encoding="utf-8"?>
<!-- Generator: Adobe Illustrator 21.1.0, SVG Export Plug-In . SVG Version: 6.00 Build 0)  -->
<svg version="1.1" id="Layer_1" xmlns="http://www.w3.org/2000/svg" xmlns:xlink="http://www.w3.org/1999/xlink" x="0px" y="0px"
	 width="100px" height="63.9px" viewBox="0 0 100 63.9" style="enable-background:new 0 0 100 63.9;" xml:space="preserve">
<style type="text/css">
	.st0{fill:#E76F00;}
	.st1{fill:#5382A1;}
</style>
<path class="st0" d="M99.7,31.4l-0.3,0.8L99,31.4h-0.3v1.2h0.2v-0.9h0l0.3,0.9h0.2l0.3-0.9h0l0,0.9h0.2v-1.2H99.7z M97.5,31.4v0.2
	h0.4v1h0.2v-1h0.3v-0.2H97.5z"/>
<path class="st1" d="M15.2,49.4c0,0-2.4,1.4,1.7,1.9c5.1,0.6,7.7,0.5,13.2-0.6c0,0,1.5,0.9,3.5,1.7C21.2,57.8,5.4,52.2,15.2,49.4
	 M13.6,42.4c0,0-2.7,2,1.4,2.5c5.4,0.6,9.7,0.6,17.1-0.8c0,0,1,1,2.6,1.6C19.7,50.1,2.8,46,13.6,42.4"/>
<path class="st0" d="M26.5,30.5c3.1,3.5-0.8,6.7-0.8,6.7s7.8-4,4.2-9.1c-3.4-4.7-5.9-7.1,8-15.1C38,13,16.1,18.5,26.5,30.5"/>
<path class="st1" d="M43.1,54.6c0,0,1.8,1.5-2,2.6c-7.2,2.2-30,2.8-36.4,0.1c-2.3-1,2-2.4,3.3-2.7c1.4-0.3,2.2-0.2,2.2-0.2
	c-2.5-1.8-16.4,3.5-7,5C28.7,63.6,49.7,57.6,43.1,54.6 M16.3,35.2c0,0-11.6,2.8-4.1,3.8c3.2,0.4,9.5,0.3,15.4-0.2
	c4.8-0.4,9.6-1.3,9.6-1.3s-1.7,0.7-2.9,1.6c-11.8,3.1-34.6,1.7-28-1.5C11.8,34.9,16.3,35.2,16.3,35.2 M37.2,46.8
	c12-6.2,6.4-12.2,2.6-11.4c-0.9,0.2-1.4,0.4-1.4,0.4s0.4-0.6,1-0.8c7.7-2.7,13.5,7.9-2.5,12.1C36.9,47.1,37.1,47,37.2,46.8"/>
<path class="st0" d="M30,0c0,0,6.6,6.6-6.3,16.9c-10.4,8.2-2.4,12.9,0,18.2c-6.1-5.5-10.5-10.3-7.5-14.7C20.5,13.7,32.6,10.5,30,0"
	/>
<path class="st1" d="M17.5,63.7c11.5,0.7,29.2-0.4,29.6-5.9c0,0-0.8,2.1-9.5,3.7c-9.8,1.8-21.9,1.6-29.1,0.4
	C8.5,62,10,63.2,17.5,63.7"/>
<path class="st0" d="M66.9,42.6c-1.1,0.9-2.2,1.5-3.3,1.5c-1.5,0-2.3-0.9-2.3-2.3c0-1.5,0.9-2.6,4.3-2.6h1.3L66.9,42.6 M69.9,46
	V35.5c0-2.7-1.5-4.4-5.2-4.4c-2.1,0-4,0.5-5.6,1.2l0.4,1.9c1.2-0.4,2.8-0.9,4.3-0.9c2.1,0,3,0.9,3,2.6v1.3h-1.1c-5.1,0-7.5,2-7.5,5
	c0,2.6,1.5,4.1,4.4,4.1c1.9,0,3.2-0.8,4.5-1.9l0.2,1.6L69.9,46L69.9,46z M79.9,46h-3.7l-4.5-14.6H75l2.8,9l0.6,2.7
	c1.4-3.9,2.4-7.9,2.9-11.7h3.2C83.6,36.2,82.1,41.5,79.9,46 M94.3,42.6c-1.1,0.9-2.2,1.5-3.3,1.5c-1.5,0-2.3-0.9-2.3-2.3
	c0-1.5,0.9-2.6,4.3-2.6h1.3V42.6 M97.3,46V35.5c0-2.7-1.5-4.4-5.2-4.4c-2.1,0-4,0.5-5.6,1.2l0.4,1.9c1.2-0.4,2.8-0.9,4.3-0.9
	c2.1,0,3,0.9,3,2.6v1.3h-1.1c-5.1,0-7.5,2-7.5,5c0,2.6,1.5,4.1,4.4,4.1c1.9,0,3.2-0.8,4.5-1.9l0.2,1.6L97.3,46L97.3,46z M55.1,48.5
	c-0.9,1.2-2.2,2.2-3.7,2.8l-1.5-1.7c1.1-0.6,2.1-1.5,2.6-2.4c0.4-0.8,0.6-1.8,0.6-4.2V26.2h3.2v16.5C56.3,45.9,56,47.2,55.1,48.5"/>
</svg>
