<?xml version="1.0" encoding="utf-8"?>
<!-- Generator: Adobe Illustrator 21.1.0, SVG Export Plug-In . SVG Version: 6.00 Build 0)  -->
<svg version="1.1" id="Layer_1" xmlns="http://www.w3.org/2000/svg" xmlns:xlink="http://www.w3.org/1999/xlink" x="0px" y="0px"
	 width="90px" height="55.1px" viewBox="0 0 90 55.1" style="enable-background:new 0 0 90 55.1;" xml:space="preserve">
<style type="text/css">
	.st0{fill:#539E43;}
	.st1{fill:#333333;}
	.st2{clip-path:url(#SVGID_2_);fill:url(#SVGID_3_);}
	.st3{filter:url(#Adobe_OpacityMaskFilter);}
	.st4{clip-path:url(#SVGID_6_);}
	.st5{enable-background:new    ;}
	.st6{clip-path:url(#SVGID_8_);fill:#FFFFFF;}
	.st7{mask:url(#SVGID_4_);}
	.st8{clip-path:url(#SVGID_10_);fill:url(#SVGID_11_);}
	.st9{filter:url(#Adobe_OpacityMaskFilter_1_);}
	.st10{fill:#FFFFFF;}
	.st11{mask:url(#SVGID_12_);}
	.st12{clip-path:url(#SVGID_14_);fill:url(#SVGID_15_);}
	.st13{clip-path:url(#SVGID_17_);fill:url(#SVGID_18_);}
	.st14{clip-path:url(#SVGID_20_);fill:url(#SVGID_21_);}
	.st15{clip-path:url(#SVGID_23_);fill:url(#SVGID_24_);}
	.st16{clip-path:url(#SVGID_26_);fill:url(#SVGID_27_);}
</style>
<path class="st0" d="M44.5,55.1c-0.3,0-0.6-0.1-0.9-0.2L41,53.3c-0.4-0.2-0.2-0.3-0.1-0.3c0.5-0.2,0.7-0.2,1.2-0.5
	c0.1,0,0.1,0,0.2,0l2.1,1.2c0.1,0,0.2,0,0.2,0l8.1-4.7c0.1,0,0.1-0.1,0.1-0.2v-9.4c0-0.1,0-0.2-0.1-0.2l-8.1-4.7c-0.1,0-0.2,0-0.2,0
	l-8.1,4.7c-0.1,0-0.1,0.1-0.1,0.2v9.4c0,0.1,0,0.2,0.1,0.2l2.2,1.3c1.2,0.6,2-0.1,2-0.8v-9.3c0-0.1,0.1-0.2,0.2-0.2h1
	c0.1,0,0.2,0.1,0.2,0.2v9.3c0,1.6-0.9,2.5-2.4,2.5c-0.5,0-0.8,0-1.9-0.5l-2.1-1.2c-0.5-0.3-0.9-0.9-0.9-1.5v-9.4
	c0-0.6,0.3-1.2,0.9-1.5l8.1-4.7c0.5-0.3,1.2-0.3,1.7,0l8.1,4.7c0.5,0.3,0.9,0.9,0.9,1.5v9.4c0,0.6-0.3,1.2-0.9,1.5l-8.1,4.7
	C45.1,55,44.8,55.1,44.5,55.1L44.5,55.1z M47,48.7c-3.6,0-4.3-1.6-4.3-3c0-0.1,0.1-0.2,0.2-0.2H44c0.1,0,0.2,0.1,0.2,0.2
	c0.2,1.1,0.6,1.6,2.8,1.6c1.7,0,2.4-0.4,2.4-1.3c0-0.5-0.2-0.9-2.9-1.2C44.4,44.5,43,44,43,42.3c0-1.6,1.4-2.6,3.7-2.6
	c2.6,0,3.9,0.9,4,2.8c0,0.1,0,0.1-0.1,0.2c0,0-0.1,0.1-0.2,0.1h-1.1c-0.1,0-0.2-0.1-0.2-0.2c-0.2-1.1-0.9-1.5-2.5-1.5
	c-1.9,0-2.1,0.7-2.1,1.1c0,0.6,0.3,0.8,2.8,1.1c2.5,0.3,3.7,0.8,3.7,2.5C51.1,47.6,49.6,48.7,47,48.7"/>
<path class="st1" d="M19.3,18.4c0-0.4-0.2-0.7-0.5-0.9l-8.6-5c-0.1-0.1-0.3-0.1-0.5-0.1H9.6c-0.2,0-0.3,0.1-0.5,0.1l-8.6,5
	C0.2,17.7,0,18.1,0,18.4l0,13.3c0,0.2,0.1,0.4,0.3,0.4c0.2,0.1,0.4,0.1,0.5,0l5.1-2.9c0.3-0.2,0.5-0.5,0.5-0.9v-6.2
	c0-0.4,0.2-0.7,0.5-0.9L9.2,20c0.2-0.1,0.3-0.1,0.5-0.1c0.2,0,0.4,0,0.5,0.1l2.2,1.3c0.3,0.2,0.5,0.5,0.5,0.9v6.2
	c0,0.4,0.2,0.7,0.5,0.9l5.1,2.9c0.2,0.1,0.4,0.1,0.5,0c0.2-0.1,0.3-0.3,0.3-0.4L19.3,18.4z M60.8,0.1c-0.2-0.1-0.4-0.1-0.5,0
	C60.1,0.2,60,0.3,60,0.5v13.2c0,0.1-0.1,0.2-0.2,0.3c-0.1,0.1-0.2,0.1-0.4,0l-2.2-1.2c-0.3-0.2-0.7-0.2-1,0l-8.6,5
	c-0.3,0.2-0.5,0.5-0.5,0.9v9.9c0,0.4,0.2,0.7,0.5,0.9l8.6,5c0.3,0.2,0.7,0.2,1,0l8.6-5c0.3-0.2,0.5-0.5,0.5-0.9V3.8
	c0-0.4-0.2-0.7-0.5-0.9L60.8,0.1L60.8,0.1z M60,25.4c0,0.1,0,0.2-0.1,0.2l-2.9,1.7c-0.1,0-0.2,0-0.3,0l-2.9-1.7
	c-0.1,0-0.1-0.1-0.1-0.2V22c0-0.1,0-0.2,0.1-0.2l2.9-1.7c0.1,0,0.2,0,0.3,0l2.9,1.7c0.1,0,0.1,0.1,0.1,0.2V25.4z M89.5,21.9
	c0.3-0.2,0.5-0.5,0.5-0.9v-2.4c0-0.4-0.2-0.7-0.5-0.9l-8.6-5c-0.3-0.2-0.7-0.2-1,0l-8.6,5c-0.3,0.2-0.5,0.5-0.5,0.9v9.9
	c0,0.4,0.2,0.7,0.5,0.9l8.6,4.9c0.3,0.2,0.7,0.2,1,0l5.2-2.9c0.2-0.1,0.3-0.3,0.3-0.4c0-0.2-0.1-0.4-0.3-0.4l-8.7-5
	c-0.2-0.1-0.3-0.3-0.3-0.4V22c0-0.2,0.1-0.4,0.3-0.4l2.7-1.5c0.2-0.1,0.4-0.1,0.5,0l2.7,1.5c0.2,0.1,0.3,0.3,0.3,0.4v2.4
	c0,0.2,0.1,0.4,0.3,0.4c0.2,0.1,0.4,0.1,0.5,0L89.5,21.9z"/>
<path class="st0" d="M80.3,21.4c0.1,0,0.1,0,0.2,0l1.6,1c0.1,0,0.1,0.1,0.1,0.2v1.9c0,0.1,0,0.1-0.1,0.2l-1.6,1c-0.1,0-0.1,0-0.2,0
	l-1.6-1c-0.1,0-0.1-0.1-0.1-0.2v-1.9c0-0.1,0-0.1,0.1-0.2L80.3,21.4z"/>
<g>
	<defs>
		<path id="SVGID_1_" d="M32.7,12.7l-8.6,4.9c-0.3,0.2-0.5,0.5-0.5,0.9v9.9c0,0.4,0.2,0.7,0.5,0.9l8.6,4.9c0.3,0.2,0.7,0.2,1,0
			l8.6-4.9c0.3-0.2,0.5-0.5,0.5-0.9v-9.9c0-0.4-0.2-0.7-0.5-0.9l-8.6-4.9c-0.2-0.1-0.3-0.1-0.5-0.1S32.9,12.6,32.7,12.7"/>
	</defs>
	<clipPath id="SVGID_2_">
		<use xlink:href="#SVGID_1_"  style="overflow:visible;"/>
	</clipPath>
	
		<linearGradient id="SVGID_3_" gradientUnits="userSpaceOnUse" x1="-1202.8696" y1="791.1158" x2="-1202.8336" y2="791.1158" gradientTransform="matrix(-214.7832 438.1516 -384.5397 -244.7278 45896.0703 720663.6875)">
		<stop  offset="0" style="stop-color:#41873F"/>
		<stop  offset="0.3288" style="stop-color:#418B3D"/>
		<stop  offset="0.6352" style="stop-color:#419637"/>
		<stop  offset="0.9319" style="stop-color:#3FA92D"/>
		<stop  offset="1" style="stop-color:#3FAE2A"/>
	</linearGradient>
	<polygon class="st2" points="28.2,3.3 15.5,29.3 38.3,43.8 51,17.8 	"/>
</g>
<defs>
	<filter id="Adobe_OpacityMaskFilter" filterUnits="userSpaceOnUse" x="15.3" y="2.8" width="35.7" height="41.6">
		<feColorMatrix  type="matrix" values="1 0 0 0 0  0 1 0 0 0  0 0 1 0 0  0 0 0 1 0"/>
	</filter>
</defs>
<mask maskUnits="userSpaceOnUse" x="15.3" y="2.8" width="35.7" height="41.6" id="SVGID_4_">
	<g class="st3">
		<g>
			<defs>
				<rect id="SVGID_5_" x="23.6" y="12.6" width="19.3" height="21.9"/>
			</defs>
			<clipPath id="SVGID_6_">
				<use xlink:href="#SVGID_5_"  style="overflow:visible;"/>
			</clipPath>
			<rect x="23.6" y="12.6" class="st4" width="19.3" height="22"/>
			<g class="st5">
				<g>
					<defs>
						<rect id="SVGID_7_" x="23.6" y="12.6" width="19.3" height="22"/>
					</defs>
					<clipPath id="SVGID_8_" class="st4">
						<use xlink:href="#SVGID_7_"  style="overflow:visible;"/>
					</clipPath>
					<path class="st6" d="M33.7,12.7c-0.3-0.2-0.7-0.2-1,0l-8.6,4.9c-0.3,0.2-0.5,0.5-0.5,0.9v9.9c0,0.4,0.2,0.7,0.5,0.9l8.6,4.9
						c0.3,0.2,0.7,0.2,1,0l8.6-4.9c0.3-0.2,0.5-0.5,0.5-0.9v-9.9c0-0.4-0.2-0.7-0.5-0.9L33.7,12.7z"/>
				</g>
			</g>
		</g>
	</g>
</mask>
<g class="st7">
	<g>
		<g>
			<defs>
				<path id="SVGID_9_" d="M42.3,17.7l-8.6-4.9c-0.1,0-0.2-0.1-0.3-0.1l-9.6,16.5c0.1,0.1,0.2,0.2,0.3,0.2l8.6,4.9
					c0.2,0.1,0.5,0.2,0.8,0.1l9.1-16.6C42.5,17.8,42.4,17.7,42.3,17.7L42.3,17.7z"/>
			</defs>
			<clipPath id="SVGID_10_">
				<use xlink:href="#SVGID_9_"  style="overflow:visible;"/>
			</clipPath>
			
				<linearGradient id="SVGID_11_" gradientUnits="userSpaceOnUse" x1="-1202.7781" y1="792.184" x2="-1202.7421" y2="792.184" gradientTransform="matrix(602.6705 -445.2869 381.84 702.8109 422423.2188 -1092312.25)">
				<stop  offset="0" style="stop-color:#41873F"/>
				<stop  offset="0.1376" style="stop-color:#41873F"/>
				<stop  offset="0.4032" style="stop-color:#54A044"/>
				<stop  offset="0.7136" style="stop-color:#66B848"/>
				<stop  offset="0.9081" style="stop-color:#6CC04A"/>
				<stop  offset="1" style="stop-color:#6CC04A"/>
			</linearGradient>
			<polygon class="st8" points="29.2,44.4 51,28.3 37.2,2.8 15.3,18.9 			"/>
		</g>
	</g>
</g>
<defs>
	<filter id="Adobe_OpacityMaskFilter_1_" filterUnits="userSpaceOnUse" x="24.1" y="10.9" width="21.6" height="25.5">
		<feColorMatrix  type="matrix" values="1 0 0 0 0  0 1 0 0 0  0 0 1 0 0  0 0 0 1 0"/>
	</filter>
</defs>
<mask maskUnits="userSpaceOnUse" x="24.1" y="10.9" width="21.6" height="25.5" id="SVGID_12_">
	<g class="st9">
		<rect x="23.6" y="10.9" width="19.6" height="23.8"/>
		<g class="st5">
			<path class="st10" d="M33.7,12.7c-0.3-0.2-0.7-0.2-1,0l-8.6,4.9c-0.3,0.2-0.5,0.5-0.5,0.9v9.9c0,0.4,0.2,0.7,0.5,0.9l8.6,4.9
				c0.3,0.2,0.7,0.2,1,0l8.6-4.9c0.3-0.2,0.5-0.5,0.5-0.9v-9.9c0-0.4-0.2-0.7-0.5-0.9L33.7,12.7z"/>
		</g>
	</g>
</mask>
<g class="st11">
	<g>
		<g>
			<defs>
				<polygon id="SVGID_13_" points="32.4,10.9 32.3,11 32.5,11 				"/>
			</defs>
			<clipPath id="SVGID_14_">
				<use xlink:href="#SVGID_13_"  style="overflow:visible;"/>
			</clipPath>
			
				<linearGradient id="SVGID_15_" gradientUnits="userSpaceOnUse" x1="-1201.9333" y1="794.5336" x2="-1201.8973" y2="794.5336" gradientTransform="matrix(439.4597 0 0 165.0353 528226.5 -131115.0938)">
				<stop  offset="0" style="stop-color:#6CC04A"/>
				<stop  offset="9.192000e-02" style="stop-color:#6CC04A"/>
				<stop  offset="0.2864" style="stop-color:#66B848"/>
				<stop  offset="0.5968" style="stop-color:#54A044"/>
				<stop  offset="0.8624" style="stop-color:#41873F"/>
				<stop  offset="1" style="stop-color:#41873F"/>
			</linearGradient>
			<rect x="32.3" y="10.9" class="st12" width="0.2" height="0.1"/>
		</g>
		<g>
			<defs>
				<path id="SVGID_16_" d="M42.4,29.4c0.2-0.1,0.4-0.4,0.5-0.7l-9.4-16.1c-0.2,0-0.5,0-0.7,0.1l-8.5,4.9l9.2,16.8
					c0.1,0,0.3-0.1,0.4-0.1L42.4,29.4L42.4,29.4z"/>
			</defs>
			<clipPath id="SVGID_17_">
				<use xlink:href="#SVGID_16_"  style="overflow:visible;"/>
			</clipPath>
			
				<linearGradient id="SVGID_18_" gradientUnits="userSpaceOnUse" x1="-1202.0883" y1="792.0118" x2="-1202.0522" y2="792.0118" gradientTransform="matrix(549.6917 0 0 642.2393 660801.1875 -508637.5938)">
				<stop  offset="0" style="stop-color:#6CC04A"/>
				<stop  offset="9.192000e-02" style="stop-color:#6CC04A"/>
				<stop  offset="0.2864" style="stop-color:#66B848"/>
				<stop  offset="0.5968" style="stop-color:#54A044"/>
				<stop  offset="0.8624" style="stop-color:#41873F"/>
				<stop  offset="1" style="stop-color:#41873F"/>
			</linearGradient>
			<rect x="24.1" y="12.6" class="st13" width="18.7" height="21.9"/>
		</g>
		<g>
			<defs>
				<polygon id="SVGID_19_" points="43.1,29.2 43.1,29.1 43.1,29.3 43.1,29.2 				"/>
			</defs>
			<clipPath id="SVGID_20_">
				<use xlink:href="#SVGID_19_"  style="overflow:visible;"/>
			</clipPath>
			
				<linearGradient id="SVGID_21_" gradientUnits="userSpaceOnUse" x1="-1201.8715" y1="791.7311" x2="-1201.8354" y2="791.7311" gradientTransform="matrix(165.0353 0 0 384.7643 198388.375 -304600.6563)">
				<stop  offset="0" style="stop-color:#6CC04A"/>
				<stop  offset="9.192000e-02" style="stop-color:#6CC04A"/>
				<stop  offset="0.2864" style="stop-color:#66B848"/>
				<stop  offset="0.5968" style="stop-color:#54A044"/>
				<stop  offset="0.8624" style="stop-color:#41873F"/>
				<stop  offset="1" style="stop-color:#41873F"/>
			</linearGradient>
			<rect x="43.1" y="29.1" class="st14" width="0.1" height="0.1"/>
		</g>
		<g>
			<defs>
				<path id="SVGID_22_" d="M42.4,29.4l-8.6,4.9c-0.1,0.1-0.3,0.1-0.4,0.1l0.2,0.3l9.5-5.5v-0.1l-0.2-0.4
					C42.8,29,42.6,29.2,42.4,29.4"/>
			</defs>
			<clipPath id="SVGID_23_">
				<use xlink:href="#SVGID_22_"  style="overflow:visible;"/>
			</clipPath>
			
				<linearGradient id="SVGID_24_" gradientUnits="userSpaceOnUse" x1="-1202.0883" y1="791.5191" x2="-1202.0522" y2="791.5191" gradientTransform="matrix(549.6857 0 0 342.9765 660794 -271440.7188)">
				<stop  offset="0" style="stop-color:#6CC04A"/>
				<stop  offset="9.192000e-02" style="stop-color:#6CC04A"/>
				<stop  offset="0.2864" style="stop-color:#66B848"/>
				<stop  offset="0.5968" style="stop-color:#54A044"/>
				<stop  offset="0.8624" style="stop-color:#41873F"/>
				<stop  offset="1" style="stop-color:#41873F"/>
			</linearGradient>
			<rect x="33.4" y="28.7" class="st15" width="9.7" height="6"/>
		</g>
		<g>
			<defs>
				<path id="SVGID_25_" d="M42.4,29.4l-8.6,4.9c-0.1,0.1-0.3,0.1-0.4,0.1l0.2,0.3l9.5-5.5v-0.1l-0.2-0.4
					C42.8,29,42.6,29.2,42.4,29.4"/>
			</defs>
			<clipPath id="SVGID_26_">
				<use xlink:href="#SVGID_25_"  style="overflow:visible;"/>
			</clipPath>
			
				<linearGradient id="SVGID_27_" gradientUnits="userSpaceOnUse" x1="-1202.7252" y1="791.7411" x2="-1202.6892" y2="791.7411" gradientTransform="matrix(-339.0112 691.5805 -1108.3906 -211.5261 469867.0625 999271.1875)">
				<stop  offset="0" style="stop-color:#41873F"/>
				<stop  offset="0.3288" style="stop-color:#418B3D"/>
				<stop  offset="0.6352" style="stop-color:#419637"/>
				<stop  offset="0.9319" style="stop-color:#3FA92D"/>
				<stop  offset="1" style="stop-color:#3FAE2A"/>
			</linearGradient>
			<polygon class="st16" points="34.2,27 30.7,34.2 42.2,36.4 45.8,29.2 			"/>
		</g>
	</g>
</g>
</svg>
