<?xml version="1.0" encoding="utf-8"?>
<!-- Generator: Adobe Illustrator 21.1.0, SVG Export Plug-In . SVG Version: 6.00 Build 0)  -->
<svg version="1.1" id="Layer_1" xmlns="http://www.w3.org/2000/svg" xmlns:xlink="http://www.w3.org/1999/xlink" x="0px" y="0px"
	 width="124.9px" height="65px" viewBox="0 0 124.9 65" style="enable-background:new 0 0 124.9 65;" xml:space="preserve">
<style type="text/css">
	.st0{fill:#8993BE;}
	.st1{fill:#232531;}
</style>
<ellipse class="st0" cx="62.4" cy="32.5" rx="62.4" ry="32.5"/>
<path class="st1" d="M71.3,16.1h-7.7l1.7-9h-8.1l-6.8,34.6h8.1l3.8-19.2h6.4c3,0,3,1.3,2.6,3.4l-3,15.8h8.5l3-17.5
	C80.7,19.9,78.2,16.5,71.3,16.1z"/>
<path class="st1" d="M99,16.1H83.2l-6.8,34.6h8.1l1.7-9h7.7c7.3,0.4,15.4-5.6,15.4-15.8C109.3,19.9,105.8,16.5,99,16.1z M93,35.3
	h-5.1L90,22.5h5.6c3,0,5.1,1.3,5.1,3.8C100.3,33.6,96.8,34.9,93,35.3z"/>
<path class="st1" d="M41.7,16.1H25.9L19,50.7h8.1l1.7-9h7.7C43.9,42.2,52,36.2,52,25.9C52,19.9,48.5,16.5,41.7,16.1z M35.7,35.3
	h-5.1l2.1-12.8h5.6c3,0,5.1,1.3,5.1,3.8C43,33.6,39.6,34.9,35.7,35.3z"/>
</svg>
