<?xml version="1.0" encoding="utf-8"?>
<!-- Generator: Adobe Illustrator 21.1.0, SVG Export Plug-In . SVG Version: 6.00 Build 0)  -->
<svg version="1.1" id="Layer_1" xmlns="http://www.w3.org/2000/svg" xmlns:xlink="http://www.w3.org/1999/xlink" x="0px" y="0px"
	 width="127px" height="36.9px" viewBox="0 0 127 36.9" style="enable-background:new 0 0 127 36.9;" xml:space="preserve">
<style type="text/css">
	.st0{fill:#646464;}
	.st1{fill:url(#SVGID_1_);}
	.st2{fill:url(#SVGID_2_);}
	.st3{fill:url(#SVGID_3_);}
</style>
<path class="st0" d="M47.9,15.7c0-3.9-1.1-5.9-3.3-6c-0.9,0-1.7,0.1-2.6,0.4c-0.7,0.2-1.1,0.5-1.4,0.7v9.3c1.4,0.9,2.7,1.3,3.8,1.2
	C46.7,21.2,47.9,19.3,47.9,15.7 M50.6,15.9c0,2-0.5,3.6-1.4,4.9c-1,1.5-2.5,2.2-4.3,2.3c-1.4,0-2.8-0.4-4.3-1.3v8.4l-2.4-0.8V10.6
	c0.4-0.5,0.9-0.9,1.5-1.2c1.4-0.8,3.1-1.2,5.2-1.3l0,0c1.9,0,3.3,0.7,4.3,2.3C50.2,11.8,50.6,13.6,50.6,15.9 M65.2,21.4
	c0,2.7-0.3,4.5-0.8,5.5c-0.5,1-1.5,1.8-3.1,2.4c-1.2,0.5-2.5,0.7-3.9,0.8L57,28.6c1.4-0.2,2.4-0.4,3-0.6c1.2-0.4,1.9-1,2.4-1.8
	c0.4-0.7,0.5-1.9,0.5-3.7v-0.6c-1.6,0.7-3.3,1.1-5.1,1.1c-1.2,0-2.2-0.4-3.1-1.1c-1-0.8-1.5-1.8-1.5-3.1V8.9l2.4-0.8v10
	c0,1.1,0.3,1.9,1,2.5c0.7,0.6,1.6,0.9,2.7,0.8c1.1,0,2.3-0.4,3.5-1.3V8.4h2.4L65.2,21.4L65.2,21.4z M74.5,22.9c-0.3,0-0.5,0-0.8,0
	c-1.3,0-2.4-0.3-3.1-1c-0.7-0.6-1.1-1.5-1.1-2.7V9.9h-1.6V8.4h1.6v-4l2.4-0.8v4.8h2.7V10h-2.7v9.3c0,0.9,0.2,1.5,0.7,1.9
	c0.4,0.3,1.1,0.5,2,0.5L74.5,22.9L74.5,22.9z M88.9,22.7h-2.4v-9.2c0-0.9-0.2-1.7-0.7-2.4c-0.5-0.8-1.2-1.1-2.1-1.1
	c-1.1,0-2.5,0.6-4.1,1.7v11h-2.4v-22L79.7,0v10c1.5-1.1,3.2-1.7,5-1.7c1.3,0,2.3,0.4,3.1,1.3c0.8,0.8,1.2,1.9,1.2,3.2V22.7
	L88.9,22.7z M101.6,15.3c0-1.5-0.3-2.7-0.8-3.7c-0.7-1.2-1.7-1.8-3.1-1.9c-2.6,0.2-3.9,2-3.9,5.6c0,1.6,0.3,3,0.8,4.1
	c0.7,1.4,1.7,2.1,3.1,2.1C100.3,21.5,101.6,19.4,101.6,15.3 M104.2,15.3c0,2.1-0.5,3.9-1.6,5.3c-1.2,1.6-2.8,2.4-5,2.4
	c-2.1,0-3.7-0.8-4.9-2.4c-1.1-1.4-1.6-3.2-1.6-5.3c0-2,0.6-3.7,1.7-5.1c1.2-1.5,2.8-2.2,4.8-2.2s3.6,0.7,4.8,2.2
	C103.6,11.6,104.2,13.3,104.2,15.3L104.2,15.3z M117.9,22.7h-2.4V13c0-1.1-0.3-1.9-1-2.5c-0.6-0.6-1.5-0.9-2.6-0.9
	c-1.1,0-2.2,0.4-3.2,1.1v12h-2.4V10.5c1.4-1,2.6-1.7,3.8-2c1.1-0.3,2-0.4,2.9-0.4c0.6,0,1.1,0.1,1.6,0.2c0.9,0.2,1.7,0.6,2.3,1.2
	c0.7,0.7,1,1.4,1,2.3L117.9,22.7L117.9,22.7z"/>
<linearGradient id="SVGID_1_" gradientUnits="userSpaceOnUse" x1="0" y1="25.3082" x2="22.0074" y2="25.3082" gradientTransform="matrix(1 0 0 -1 0 37.2619)">
	<stop  offset="0" style="stop-color:#5A9FD4"/>
	<stop  offset="1" style="stop-color:#306998"/>
</linearGradient>
<path class="st1" d="M9.5,4.4c0-0.8,0.6-1.4,1.3-1.4c0.7,0,1.3,0.6,1.3,1.4c0,0.8-0.6,1.4-1.3,1.4C10.1,5.8,9.5,5.2,9.5,4.4
	 M14.7,0.8c-1.2,0-2.4,0.1-3.4,0.3c-3,0.5-3.6,1.7-3.6,3.7v2.7h7.2v0.9H5c-2.1,0-3.9,1.3-4.5,3.6C0.2,13.5,0,14.6,0,15.8v0
	c0,1.1,0.2,2.2,0.5,3.6c0.5,2.1,1.7,3.6,3.8,3.6h2.5v-3.3c0-2.4,2-4.5,4.5-4.5h7.2c2,0,3.6-1.6,3.6-3.6V4.9c0-1.9-1.6-3.4-3.6-3.7
	c-1.2-0.2-2.4-0.3-3.6-0.3C14.8,0.8,14.7,0.8,14.7,0.8"/>
<linearGradient id="SVGID_2_" gradientUnits="userSpaceOnUse" x1="7.6762" y1="17.5649" x2="29.7345" y2="17.5649" gradientTransform="matrix(1 0 0 -1 0 37.2619)">
	<stop  offset="0" style="stop-color:#FFD43B"/>
	<stop  offset="1" style="stop-color:#FFE873"/>
</linearGradient>
<path class="st2" d="M17.5,27.2c0-0.8,0.6-1.4,1.3-1.4c0.7,0,1.3,0.6,1.3,1.4c0,0.8-0.6,1.4-1.3,1.4C18.1,28.5,17.5,27.9,17.5,27.2
	 M22.9,8.5v3.2c0,2.5-2.1,4.5-4.5,4.5h-7.2c-2,0-3.6,1.7-3.6,3.6v6.8c0,1.9,1.7,3.1,3.6,3.6c2.3,0.7,4.4,0.8,7.2,0
	c1.8-0.5,3.6-1.6,3.6-3.6V24h-7.2v-0.9h10.7c2.1,0,2.9-1.5,3.6-3.6c0.7-2.2,0.7-4.4,0-7.3c-0.5-2.1-1.5-3.6-3.6-3.6L22.9,8.5
	L22.9,8.5z"/>
<path class="st0" d="M122.5,6.3h0.4V3.7h1V3.4h-2.4v0.3h1V6.3 M124.3,6.3h0.4V3.9l0.8,2.4h0.4l0.8-2.4v2.4h0.4V3.4h-0.5l-0.9,2.5
	l-0.8-2.5h-0.6L124.3,6.3"/>
<radialGradient id="SVGID_3_" cx="14.9307" cy="2.2644" r="6.9232" gradientTransform="matrix(1 0 0 -1 0 37.2619)" gradientUnits="userSpaceOnUse">
	<stop  offset="0" style="stop-color:#B8B8B8"/>
	<stop  offset="1" style="stop-color:#7F7F7F"/>
</radialGradient>
<path class="st3" d="M24.5,35c0,1-4.3,1.9-9.6,1.9S5.3,36,5.3,35s4.3-1.9,9.6-1.9S24.5,34,24.5,35"/>
</svg>
