<?xml version="1.0" encoding="utf-8"?>
<!-- Generator: Adobe Illustrator 21.1.0, SVG Export Plug-In . SVG Version: 6.00 Build 0)  -->
<svg version="1.1" id="Layer_1" xmlns="http://www.w3.org/2000/svg" xmlns:xlink="http://www.w3.org/1999/xlink" x="0px" y="0px"
	 width="110px" height="38.7px" viewBox="0 0 110 38.7" style="enable-background:new 0 0 110 38.7;" xml:space="preserve">
<style type="text/css">
	.st0{fill:#CC0000;}
</style>
<path class="st0" d="M95.7,33.6v5h9.1c1.9,0,5.1-1.4,5.2-5.2v-1.9c0-3.3-2.7-5.2-5.2-5.2h-4.5v-2.3h9V19h-8.6
	c-2.2,0-5.2,1.8-5.2,5.3V26c0,3.4,2.9,5.2,5.2,5.2c6.3,0-1.5,0,4.3,0v2.4 M47.1,32.4c0,0,4.9-0.4,4.9-6.7S46,18.9,46,18.9H35.4v19.8
	h5.3v-4.8l4.6,4.8h7.9L47.1,32.4z M45,28.4h-4.3v-4.5H45c0,0,1.2,0.4,1.2,2.3C46.2,27.9,45,28.4,45,28.4 M65.1,19h-5.4
	c-3.9,0-5.2,3.5-5.2,5.2v14.5h5.4v-3.5H65v3.5h5.3V24.2C70.3,19.9,66.4,19,65.1,19 M65,29.6h-5.1v-4.8c0,0,0-1.1,1.7-1.1h1.9
	c1.5,0,1.5,1.1,1.5,1.1L65,29.6L65,29.6z M72.7,19h5.6v19.7h-5.6V19z M86.3,33.6V19h-5.6v19.7h13.2v-5.1H86.3z"/>
<path class="st0" d="M1.9,38.7h21.9c0,0-4.2-19.1,9.7-26.9c3-1.5,12.7-7,28.5,4.7c0.5-0.4,1-0.8,1-0.8S48.6,1.3,32.5,2.9
	c-8.1,0.7-18,8.1-23.9,17.8C2.8,30.5,1.9,38.7,1.9,38.7"/>
<path class="st0" d="M45,10.4l-0.1,1.8c0.9,0,1.8,0.1,2.8,0.3l0.1-1.7C46.8,10.5,45.9,10.4,45,10.4 M34.8,1.7H35L34.5,0
	c-0.9,0-1.8,0.1-2.7,0.2l0.5,1.6C33.1,1.7,34,1.7,34.8,1.7 M36.1,11.9l0.6,1.9c0.8-0.4,1.6-0.7,2.4-1L38.5,11
	C37.6,11.3,36.8,11.6,36.1,11.9 M23.5,4.6l-1.3-1.9c-0.7,0.4-1.4,0.8-2.2,1.2l1.3,1.9C22.1,5.4,22.8,5,23.5,4.6 M29.2,17.1l1.3,2
	c0.5-0.7,1-1.3,1.6-2l-1.3-1.9C30.3,15.8,29.7,16.5,29.2,17.1 M25.1,26.1l2.3,1.8c0.1-1.1,0.3-2.2,0.6-3.3L26,23
	C25.6,24,25.4,25.1,25.1,26.1 M13,12.9l-2-1.7c-0.7,0.7-1.4,1.4-2.1,2.1l2.1,1.8C11.7,14.3,12.3,13.6,13,12.9 M4.6,25.3l-3.2-1.2
	c-0.5,1.2-1.1,2.6-1.4,3.3l3.2,1.2C3.6,27.7,4.1,26.3,4.6,25.3 M24.7,33.1c0.1,1.5,0.2,2.7,0.3,3.5l3.3,1.2
	c-0.3-1.1-0.5-2.3-0.7-3.6L24.7,33.1z"/>
</svg>
