<?xml version="1.0" encoding="utf-8"?>
<!-- Generator: Adobe Illustrator 21.1.0, SVG Export Plug-In . SVG Version: 6.00 Build 0)  -->
<svg version="1.1" id="Layer_1" xmlns="http://www.w3.org/2000/svg" xmlns:xlink="http://www.w3.org/1999/xlink" x="0px" y="0px"
	 width="150px" height="45.9px" viewBox="0 0 150 45.9" style="enable-background:new 0 0 150 45.9;" xml:space="preserve">
<style type="text/css">
	.st0{fill:#606060;}
	.st1{fill-rule:evenodd;clip-rule:evenodd;fill:#606060;}
	.st2{fill-rule:evenodd;clip-rule:evenodd;}
	.st3{fill-rule:evenodd;clip-rule:evenodd;fill:#952781;}
	.st4{fill-rule:evenodd;clip-rule:evenodd;fill:#6483C0;}
	.st5{fill-rule:evenodd;clip-rule:evenodd;fill:#D87B30;}
	.st6{fill-rule:evenodd;clip-rule:evenodd;fill:#E0D400;}
</style>
<rect x="0.2" y="18.9" class="st0" width="104.3" height="1.2"/>
<polygon class="st1" points="12,34.6 7.8,34.6 3.3,20.8 7.8,20.8 9.9,28.3 10.2,29.6 10.7,28.3 12.8,20.8 16.3,20.8 "/>
<path class="st1" d="M16.1,24.4H20v10.2h-3.9V24.4z M16.1,20.6H20v2.8h-3.9V20.6z"/>
<path class="st1" d="M22.9,31.2c0.3,1,1.3,1.1,2.1,1.1c0.5,0,1.6,0,1.6-0.7c0-0.5-1.3-0.7-1.8-0.7c-2.1-0.3-4.6-0.7-4.6-3.4
	c0-1.1,0.5-2.1,1.5-2.6c1-0.7,2.1-0.8,3.3-0.8c1.9,0,4.1,0.7,4.7,2.6l-3.1,0.7c-0.3-0.8-1-1-1.8-1c-0.3,0-1.3,0.2-1.3,0.5
	c0,0.3,0.5,0.5,0.7,0.7c0.5,0,1.3,0.2,1.8,0.2c0.8,0.2,1.9,0.3,2.8,0.8c1,0.5,1.5,1.5,1.5,2.6c0,2.8-3.1,3.6-5.4,3.6s-4.4-0.8-5-3.1
	L22.9,31.2z"/>
<path class="st1" d="M36.2,34.6v-1.8c-0.5,1.3-1.8,2-3.1,2c-0.8,0-1.6-0.2-2.3-0.8c-0.7-0.7-0.8-1.6-0.8-2.6v-7H34v6.2
	c0,0.7,0,1.3,1,1.3c0.3,0,0.8-0.2,1-0.5c0.2-0.3,0.2-0.8,0.2-1.1v-5.8H40v10.2L36.2,34.6L36.2,34.6z"/>
<path class="st1" d="M46.6,30.1c0,1-0.2,2.3-1.6,2.3c-0.7,0-1-0.3-1-1c0-1.1,1.6-1.5,2.6-1.6L46.6,30.1L46.6,30.1z M50.7,34.6
	c-0.3-0.8-0.3-1.5-0.3-2.3v-3.6c0-1.5,0.2-2.8-1.1-3.7c-1-0.7-2.6-0.8-3.7-0.8c-2.3,0-4.7,0.7-5.4,3.1l3.7,0.3
	c0-0.8,0.7-1.1,1.5-1.1c1,0,1.3,0.5,1.3,1.3V28c-1.5,0-2.8,0.2-4.1,0.7c-1.5,0.3-2.8,1.5-2.8,3.1c0,2.1,1.8,3.1,3.6,3.1
	c1.5,0,2.6-0.5,3.4-1.6c0,0.5,0,1,0.2,1.5L50.7,34.6L50.7,34.6z"/>
<rect x="50.7" y="20.8" class="st1" width="3.9" height="13.8"/>
<path class="st1" d="M61.1,31.5v-2.4h1.6c0.3,0,0.8,0,1.1,0.2c0.5,0.2,0.8,0.7,0.8,1c0,0.5-0.3,0.8-0.7,1c-0.3,0.3-0.8,0.3-1.1,0.3
	L61.1,31.5L61.1,31.5z M57.2,34.6h6.3c1.1,0,2.6,0,3.7-0.8c1-0.7,1.3-2.1,1.3-3.3c0-1.6-1-2.8-2.6-3.1c1.5-0.3,2.3-1.6,2.3-2.9
	c0-1.1-0.5-2.3-1.5-2.9C66,21,65,20.8,63.9,20.8h-6.7V34.6z M61.1,26.2v-2.3h1.6c0.8,0,1.6,0,1.6,1.1c0,0.3-0.2,0.7-0.5,0.8
	c-0.2,0.3-0.7,0.3-1.1,0.3H61.1z"/>
<path class="st1" d="M75.2,30.1c0,1,0,2.3-1.6,2.3c-0.7,0-1-0.3-1-1c0-1.1,1.6-1.5,2.6-1.6L75.2,30.1L75.2,30.1z M79.3,34.6
	C79,33.8,79,33.2,79,32.3v-3.6c0-1.5,0.2-2.8-1.1-3.7c-1-0.7-2.6-0.8-3.7-0.8c-2.3,0-4.7,0.7-5.4,3.1l3.7,0.3c0-0.8,0.7-1.1,1.5-1.1
	c1,0,1.3,0.5,1.3,1.3V28c-1.5,0-2.8,0.2-4.1,0.7c-1.5,0.3-2.6,1.5-2.6,3.1c0,2.1,1.6,3.1,3.4,3.1c1.5,0,2.6-0.5,3.4-1.6
	c0,0.5,0,1,0.2,1.5L79.3,34.6L79.3,34.6z"/>
<path class="st1" d="M81.9,31.2c0.2,1,1.3,1.1,2.3,1.1c0.3,0,1.5,0,1.5-0.7c0-0.5-1.5-0.7-1.8-0.7c-2.1-0.3-4.6-0.7-4.6-3.4
	c0-1.1,0.5-2.1,1.5-2.6c1-0.7,2.1-0.8,3.3-0.8c1.9,0,4.1,0.7,4.7,2.6l-3.1,0.7c-0.3-0.8-1-1-1.8-1c-0.3,0-1.3,0.2-1.3,0.5
	c0,0.3,0.5,0.5,0.7,0.7c0.5,0,1.3,0.2,1.8,0.2c0.8,0.2,2,0.3,2.8,0.8c0.8,0.5,1.5,1.5,1.5,2.6c0,2.8-3.1,3.6-5.4,3.6
	c-2.3,0-4.4-0.8-5-3.1L81.9,31.2z"/>
<path class="st1" d="M89.1,24.4H93v10.2h-3.9V24.4z M89.1,20.6H93v2.8h-3.9V20.6z"/>
<path class="st1" d="M103.4,30.7c-0.3,2.6-2.3,4.1-4.9,4.1c-1.5,0-2.6-0.3-3.7-1.5c-1-1-1.5-2.4-1.5-3.9c0-2.9,2.1-5.2,5.2-5.2
	c2.6,0,4.6,1.5,4.9,4.1l-3.6,0.2c-0.2-0.8-0.3-1.5-1.1-1.5c-1.3,0-1.3,1.6-1.3,2.4c0,1,0,2.6,1.3,2.6c1,0,1.1-0.8,1.3-1.6
	L103.4,30.7z"/>
<polygon class="st1" points="1.1,17.1 0,17.1 0,7 2,7 4.9,15.1 8,7 9.8,7 9.8,17.1 8.5,17.1 8.5,8.3 5.2,17.1 4.4,17.1 1.1,8.3 "/>
<path class="st1" d="M11.7,9.6h1.1v7.5h-1.1V9.6z M11.5,7h1.3v1.3h-1.3V7z"/>
<path class="st1" d="M20,14.6c-0.2,1.5-1.1,2.6-2.8,2.6c-2.3,0-3.3-1.9-3.3-3.9c0-1.9,1-3.9,3.3-3.9c1.6,0,2.6,1.1,2.8,2.6l-1,0.2
	c-0.2-1-0.7-1.8-1.8-1.8c-1.6,0-2,1.6-2,2.9c0,1.1,0.3,2.9,2,2.9c1,0,1.6-0.8,1.8-1.8L20,14.6z"/>
<path class="st1" d="M22.1,9.6v1.8h0.2c0.3-1,1-1.9,2.1-1.9h0.5v1.1h-0.3c-0.8,0-1.5,0.5-2,1.1c-0.2,0.7-0.3,1-0.3,1.6v3.7h-1.1V9.6
	H22.1z"/>
<path class="st1" d="M28.3,16.3c-0.7,0-1.3-0.3-1.6-1c-0.3-0.5-0.5-1.3-0.5-2c0-0.7,0.2-1.3,0.3-1.9c0.3-0.7,1-1,1.8-1
	c0.7,0,1.3,0.3,1.6,0.8c0.3,0.7,0.5,1.5,0.5,2.1c0,0.6-0.2,1.3-0.5,2C29.6,15.9,28.9,16.3,28.3,16.3 M28.1,17.2
	c2.3,0,3.4-1.8,3.4-3.9c0-1.9-1-3.9-3.3-3.9c-2.1,0-3.4,1.8-3.4,3.9C24.9,15.3,25.8,17.2,28.1,17.2"/>
<path class="st1" d="M33.5,15c0.2,1,1.3,1.3,2.3,1.3c0.8,0,1.8-0.3,1.8-1.1c0-0.8-0.8-1.1-1.5-1.1l-1.1-0.3
	c-1.1-0.2-2.3-0.6-2.3-1.9c0-1.6,1.5-2.3,2.8-2.3c1.5,0,2.6,0.5,2.9,1.9l-1,0.2c-0.3-0.8-1.1-1.1-2-1.1c-0.6,0-1.6,0.2-1.6,1.1
	c0,0.7,0.8,1,1.5,1l1,0.2c0.7,0.2,1.1,0.3,1.6,0.7c0.7,0.3,0.8,1,0.8,1.6c0,1.6-1.6,2.3-3.1,2.3c-1.5,0-2.8-0.6-3.3-2.1L33.5,15z"/>
<path class="st1" d="M42.9,16.3c-0.7,0-1.3-0.3-1.6-1c-0.3-0.5-0.5-1.3-0.5-2c0-0.7,0.2-1.3,0.3-1.9c0.3-0.7,1-1,1.8-1
	c0.6,0,1.3,0.3,1.6,0.8c0.3,0.7,0.5,1.5,0.5,2.1c0,0.6-0.2,1.3-0.5,2C44.2,15.9,43.7,16.3,42.9,16.3 M42.7,17.2
	c2.3,0,3.6-1.8,3.6-3.9c0-1.9-1.1-3.9-3.4-3.9c-2.1,0-3.4,1.8-3.4,3.9C39.5,15.3,40.6,17.2,42.7,17.2"/>
<path class="st1" d="M50.9,10.6h-1.8v6.5h-1.1v-6.5h-1.3v-1h1.3c-0.2-1.5,0.5-2.9,2.3-2.8l1,0.2v1c-0.3-0.2-0.6-0.2-1-0.2
	c-1.1,0-1.1,1-1.1,1.8h1.8L50.9,10.6L50.9,10.6z"/>
<path class="st1" d="M54.9,17.2h-1.1c-1.6,0-2.1-1-2.1-2.4v-4.2h-1.3v-1h1.3V7.8l1.1-0.2v2h1.8v1h-1.8V15c0,1,0.3,1.3,1.3,1.3h0.8
	V17.2z"/>
<polygon class="st2" points="129.5,20.3 129.5,12.4 139.8,17.2 139.8,25.8 "/>
<polygon class="st3" points="130.3,19.7 130.3,13.3 139.4,17.7 139.4,24.5 "/>
<polygon class="st2" points="129.5,12.4 139.3,8.1 149.2,12.8 140.2,17.6 "/>
<polygon class="st3" points="131.1,12.5 139.1,9.1 147.6,13 139.9,16.9 "/>
<polygon class="st2" points="139.6,17.4 139.8,25.8 149.4,21.1 149.2,12.8 "/>
<polygon class="st3" points="140.6,17.7 140.6,24.5 148.4,20.6 148.4,13.7 "/>
<polygon class="st2" points="114.9,12 114.9,4.1 125.1,8.9 125.1,17.6 "/>
<polygon class="st4" points="115.7,11.4 115.7,5 124.8,9.4 124.8,16.4 "/>
<polygon class="st2" points="114.9,4.1 124.6,0 134.6,4.6 125.6,9.3 "/>
<polygon class="st4" points="116.5,4.2 124.5,0.8 132.9,4.7 125.3,8.6 "/>
<polygon class="st2" points="125,9.1 125.1,17.6 134.7,12.8 134.6,4.6 "/>
<polygon class="st4" points="125.9,9.4 125.9,16.3 133.7,12.4 133.7,5.5 "/>
<polygon class="st2" points="100.9,19.8 100.9,11.9 111,16.7 111.2,25.4 "/>
<polygon class="st5" points="101.7,19.2 101.7,12.8 110.8,17.2 110.8,24.1 "/>
<polygon class="st2" points="100.9,11.9 110.7,7.6 120.6,12.4 111.5,17.1 "/>
<polygon class="st5" points="102.4,12 110.5,8.6 119,12.5 111.3,16.4 "/>
<polygon class="st2" points="111,16.9 111.2,25.4 120.7,20.6 120.6,12.4 "/>
<polygon class="st5" points="111.8,17.2 112,24.1 119.8,20.2 119.6,13.2 "/>
<polygon class="st2" points="115.7,21 115.7,13 125.8,17.9 125.9,26.7 "/>
<polygon class="st6" points="116.5,20.5 116.5,14 125.6,18.4 125.6,25.4 "/>
<polygon class="st2" points="115.7,13 125.5,8.9 135.4,13.5 126.3,18.2 "/>
<polygon class="st6" points="117.2,13.3 125.3,9.9 133.7,13.8 125.9,17.6 "/>
<polygon class="st2" points="125.8,18 125.9,26.7 135.4,21.8 135.4,13.5 "/>
<polygon class="st6" points="126.6,18.4 126.8,25.2 134.6,21.5 134.4,14.5 "/>
<path class="st1" d="M56.9,8.1c0.7,0,1.3,0.5,1.3,1.3c0,0.6-0.7,1.1-1.3,1.1c-0.8,0-1.3-0.5-1.3-1.1C55.6,8.6,56.1,8.1,56.9,8.1
	 M56.9,10.9c0.8,0,1.5-0.7,1.5-1.5c0-1-0.6-1.6-1.5-1.6c-1,0-1.6,0.6-1.6,1.6C55.3,10.2,55.9,10.9,56.9,10.9 M57,9.4
	c0.3,0,0.7-0.2,0.7-0.5c0-0.2-0.2-0.3-0.3-0.3c0-0.2-0.2-0.2-0.3-0.2h-0.8v1.8h0.3V9.4h0.3l0.5,0.8h0.2L57,9.4z M56.6,9.3V8.8H57
	c0.2,0,0.3,0,0.3,0.2c0,0.3-0.3,0.3-0.7,0.3H56.6z"/>
<path class="st1" d="M106.1,24.9c0.7,0,1.1,0.5,1.1,1.1c0,0.7-0.5,1.3-1.1,1.3c-0.8,0-1.3-0.7-1.3-1.3
	C104.8,25.4,105.3,24.9,106.1,24.9 M106.1,27.6c0.8,0,1.5-0.8,1.5-1.6c0-0.8-0.7-1.5-1.5-1.5c-1,0-1.6,0.7-1.6,1.5
	C104.5,26.8,105.1,27.6,106.1,27.6 M106.3,26.2c0.3,0,0.5-0.2,0.5-0.5c0-0.2,0-0.3-0.2-0.5h-0.3h-0.8v1.6h0.2v-0.6h0.3l0.5,0.6h0.3
	L106.3,26.2z M105.6,25.8v-0.5h0.5c0.3,0,0.5,0,0.5,0.3c0,0.3-0.3,0.2-0.7,0.2L105.6,25.8L105.6,25.8z"/>
<polygon class="st2" points="146.9,25 146.9,23.4 146.4,23.4 146.4,23.2 147.7,23.2 147.7,23.4 147.1,23.4 147.1,25 "/>
<polygon class="st2" points="148.4,25 148.2,25 148.2,23.2 148.5,23.2 149,24.7 149.7,23.2 150,23.2 150,25 149.7,25 149.7,23.4 
	149.2,25 149,25 148.4,23.4 "/>
<path class="st0" d="M56.3,43.7V39h-0.7v-0.7h0.7V38c0-0.8,0.2-1.4,0.6-1.9c0.4-0.4,0.9-0.5,1.3-0.5c0.4,0,0.6,0.1,0.8,0.2L59,36.6
	c-0.2-0.1-0.3-0.1-0.6-0.1c-0.8,0-1,0.7-1,1.6v0.3h1.3V39h-1.3v4.6H56.3z"/>
<path class="st0" d="M61.8,43.8c-1.4,0-2.6-1.1-2.6-2.8c0-1.8,1.2-2.9,2.7-2.9c1.5,0,2.6,1.1,2.6,2.8C64.5,42.9,63.1,43.8,61.8,43.8
	L61.8,43.8z M61.8,43c0.9,0,1.6-0.9,1.6-2.1c0-0.9-0.5-2.1-1.6-2.1c-1.1,0-1.6,1.1-1.6,2.1C60.2,42.2,60.9,43,61.8,43L61.8,43
	L61.8,43z"/>
<path class="st0" d="M66,40c0-0.6,0-1.2,0-1.7h0.9l0,1.1h0c0.2-0.7,0.8-1.2,1.5-1.2c0.1,0,0.2,0,0.3,0v0.9c-0.1,0-0.2,0-0.3,0
	c-0.7,0-1.2,0.5-1.3,1.2c0,0.1,0,0.3,0,0.5v2.9h-1L66,40z"/>
<path class="st0" d="M73.8,41.3L73,43.7h-1l2.5-7.5h1.2l2.6,7.5h-1l-0.8-2.4H73.8z M76.2,40.5l-0.7-2.2c-0.2-0.5-0.3-0.9-0.4-1.4h0
	c-0.1,0.4-0.2,0.9-0.4,1.4L74,40.5L76.2,40.5L76.2,40.5z"/>
<path class="st0" d="M79.6,40c0-0.7,0-1.2,0-1.8h0.9l0.1,0.9h0c0.4-0.7,1-1,1.9-1c1.3,0,2.3,1.1,2.3,2.7c0,1.9-1.2,2.9-2.4,2.9
	c-0.7,0-1.3-0.3-1.7-0.8h0v2.9h-1L79.6,40L79.6,40z M80.5,41.5c0,0.1,0,0.3,0,0.4c0.2,0.7,0.8,1.1,1.5,1.1c1,0,1.6-0.8,1.6-2.1
	c0-1.1-0.6-2-1.6-2c-0.7,0-1.3,0.5-1.5,1.2c0,0.1-0.1,0.3-0.1,0.4V41.5z"/>
<path class="st0" d="M86.2,40c0-0.7,0-1.2,0-1.8H87l0.1,0.9h0c0.4-0.7,1-1,1.9-1c1.3,0,2.3,1.1,2.3,2.7c0,1.9-1.2,2.9-2.4,2.9
	c-0.7,0-1.3-0.3-1.7-0.8h0v2.9h-1L86.2,40L86.2,40z M87.1,41.5c0,0.1,0,0.3,0,0.4c0.2,0.7,0.8,1.1,1.5,1.1c1,0,1.6-0.8,1.6-2.1
	c0-1.1-0.6-2-1.6-2c-0.7,0-1.3,0.5-1.5,1.2c0,0.1-0.1,0.3-0.1,0.4V41.5z"/>
<rect x="92.7" y="35.8" class="st0" width="1" height="7.9"/>
<path class="st0" d="M96.1,37.3c-0.4,0-0.6-0.3-0.6-0.6c0-0.3,0.3-0.6,0.6-0.6c0.4,0,0.6,0.3,0.6,0.6C96.7,37,96.5,37.3,96.1,37.3
	L96.1,37.3z M95.6,38.3h1v5.4h-1V38.3z"/>
<path class="st0" d="M102.3,43.5c-0.3,0.1-0.8,0.3-1.5,0.3c-1.6,0-2.7-1.1-2.7-2.8c0-1.7,1.1-2.9,2.9-2.9c0.6,0,1.1,0.1,1.4,0.3
	l-0.2,0.7c-0.2-0.1-0.6-0.3-1.1-0.3c-1.2,0-1.9,0.9-1.9,2c0,1.2,0.8,2,1.9,2c0.6,0,0.9-0.1,1.2-0.3L102.3,43.5z"/>
<path class="st0" d="M107.5,42.4c0,0.5,0,0.9,0.1,1.3h-0.9l-0.1-0.7h0c-0.3,0.4-0.9,0.8-1.6,0.8c-1.1,0-1.6-0.8-1.6-1.5
	c0-1.3,1.2-2,3.2-2v-0.1c0-0.4-0.1-1.3-1.2-1.2c-0.5,0-1,0.1-1.4,0.4l-0.2-0.7c0.4-0.3,1.1-0.5,1.8-0.5c1.7,0,2.1,1.1,2.1,2.2V42.4z
	 M106.6,40.9c-1.1,0-2.3,0.2-2.3,1.2c0,0.6,0.4,0.9,0.9,0.9c0.7,0,1.2-0.4,1.3-0.9c0-0.1,0-0.2,0-0.3V40.9z"/>
<path class="st0" d="M110.5,37v1.3h1.4V39h-1.4v2.9c0,0.7,0.2,1,0.7,1c0.3,0,0.4,0,0.6-0.1l0,0.7c-0.2,0.1-0.5,0.1-0.9,0.1
	c-0.5,0-0.8-0.2-1.1-0.4c-0.3-0.3-0.4-0.8-0.4-1.4V39h-0.8v-0.7h0.8v-1L110.5,37z"/>
<path class="st0" d="M113.7,37.3c-0.4,0-0.6-0.3-0.6-0.6c0-0.3,0.3-0.6,0.6-0.6c0.4,0,0.6,0.3,0.6,0.6
	C114.4,37,114.1,37.3,113.7,37.3L113.7,37.3z M113.3,38.3h1v5.4h-1V38.3z"/>
<path class="st0" d="M118.3,43.8c-1.4,0-2.6-1.1-2.6-2.8c0-1.8,1.2-2.9,2.7-2.9c1.5,0,2.6,1.1,2.6,2.8
	C121,42.9,119.6,43.8,118.3,43.8L118.3,43.8z M118.4,43c0.9,0,1.6-0.9,1.6-2.1c0-0.9-0.5-2.1-1.6-2.1c-1.1,0-1.6,1.1-1.6,2.1
	C116.8,42.2,117.4,43,118.4,43L118.4,43L118.4,43z"/>
<path class="st0" d="M122.5,39.7c0-0.6,0-1,0-1.5h0.9l0.1,0.9h0c0.3-0.5,0.9-1,1.8-1c0.7,0,1.9,0.4,1.9,2.3v3.2h-1v-3.1
	c0-0.9-0.3-1.6-1.2-1.6c-0.6,0-1.1,0.5-1.3,1c0,0.1-0.1,0.3-0.1,0.5v3.2h-1L122.5,39.7L122.5,39.7z"/>
<path class="st0" d="M128.8,42.7c0.3,0.2,0.8,0.4,1.3,0.4c0.7,0,1-0.3,1-0.8c0-0.5-0.3-0.7-1-1c-1-0.4-1.4-0.9-1.4-1.5
	c0-0.9,0.7-1.6,1.9-1.6c0.5,0,1,0.1,1.3,0.3l-0.2,0.7c-0.2-0.1-0.6-0.3-1.1-0.3c-0.6,0-0.9,0.3-0.9,0.7c0,0.5,0.3,0.7,1,0.9
	c0.9,0.3,1.4,0.8,1.4,1.6c0,1-0.7,1.6-2,1.6c-0.6,0-1.1-0.2-1.5-0.4L128.8,42.7z"/>
</svg>
